<svg xmlns="http://www.w3.org/2000/svg" version="1.1" xmlns:xlink="http://www.w3.org/1999/xlink" xmlns:svgjs="http://svgjs.dev/svgjs" width="1440" height="3840" preserveAspectRatio="none" viewBox="0 0 1440 3840">
    <g mask="url(&quot;#SvgjsMask1704&quot;)" fill="none">
        <rect width="1440" height="3840" x="0" y="0" fill="url(&quot;#SvgjsLinearGradient1705&quot;)"></rect>
        <path d="M1440 0L1295.55 0L1440 1256.69z" fill="rgba(255, 255, 255, .1)"></path>
        <path d="M1295.55 0L1440 1256.69L1440 2386.4700000000003L904.3199999999999 0z" fill="rgba(255, 255, 255, .075)"></path>
        <path d="M904.3199999999999 0L1440 2386.4700000000003L1440 3086.6200000000003L490.25999999999993 0z" fill="rgba(255, 255, 255, .05)"></path>
        <path d="M490.26 0L1440 3086.6200000000003L1440 3382.3100000000004L211.13 0z" fill="rgba(255, 255, 255, .025)"></path>
        <path d="M0 3840L13.25 3840L0 2793.29z" fill="rgba(0, 0, 0, .1)"></path>
        <path d="M0 2793.29L13.25 3840L592.98 3840L0 1724.56z" fill="rgba(0, 0, 0, .075)"></path>
        <path d="M0 1724.56L592.98 3840L989.7 3840L0 1627.1399999999999z" fill="rgba(0, 0, 0, .05)"></path>
        <path d="M0 1627.1399999999999L989.7 3840L996.1800000000001 3840L0 536.31z" fill="rgba(0, 0, 0, .025)"></path>
    </g>
    <defs>
        <mask id="SvgjsMask1704">
            <rect width="1440" height="3840" fill="#ffffff"></rect>
        </mask>
        <linearGradient x1="141.67%" y1="15.62%" x2="-41.67%" y2="84.38%" gradientUnits="userSpaceOnUse" id="SvgjsLinearGradient1705">
            <stop stop-color="rgba(57, 62, 70, 1)" offset="0"></stop>
            <stop stop-color="rgba(59, 59, 59, 1)" offset="1"></stop>
        </linearGradient>
    </defs>
</svg>