<svg xmlns="http://www.w3.org/2000/svg" version="1.1" xmlns:xlink="http://www.w3.org/1999/xlink" xmlns:svgjs="http://svgjs.dev/svgjs" width="3840" height="3840" preserveAspectRatio="none" viewBox="0 0 3840 3840"><g mask="url(&quot;#SvgjsMask1044&quot;)" fill="none"><rect width="3840" height="3840" x="0" y="0" fill="url(&quot;#SvgjsRadialGradient1045&quot;)"></rect><path d="M3907.995,2295.404C4234.865,2315.034,4614.34,2305.795,4783.988,2025.708C4957.135,1739.845,4819.198,1378.635,4630.26,1102.954C4467.678,865.729,4195.223,761.985,3907.995,747.537C3585.694,731.325,3214.103,746.76,3047.863,1023.356C2878.685,1304.841,3013.109,1658.352,3197.067,1930.408C3356.993,2166.922,3622.999,2278.289,3907.995,2295.404" fill="rgba(0, 0, 0, 0.11)" class="triangle-float3"></path><path d="M1684.957,2522.613C1849.816,2523.327,2013.815,2459.736,2098.794,2318.464C2186.215,2173.132,2189.075,1983.745,2093.294,1843.781C2006.827,1717.428,1838.043,1711.24,1684.957,1713.727C1537.923,1716.116,1381.507,1734.979,1298.973,1856.687C1206.99,1992.33,1195.092,2173.115,1277.278,2314.908C1359.251,2456.333,1521.495,2521.906,1684.957,2522.613" fill="rgba(0, 0, 0, 0.11)" class="triangle-float1"></path><path d="M2725.159,4339.874C3027.912,4331.11,3335.586,4261.61,3506.891,4011.828C3702.438,3726.699,3798.056,3339.76,3610.054,3049.601C3431.717,2774.358,3053.057,2798.548,2725.159,2805.315C2414.42,2811.728,2077.702,2828.94,1901.341,3084.863C1703.594,3371.821,1669.659,3768.141,1860.898,4059.476C2039.033,4330.848,2400.68,4349.267,2725.159,4339.874" fill="rgba(0, 0, 0, 0.11)" class="triangle-float2"></path><path d="M3987.786,3324.672C4377.666,3318.555,4710.686,3056.584,4889.826,2710.242C5054.984,2390.933,5007.77,2015.647,4824.97,1706.1C4645.61,1402.378,4340.509,1180.895,3987.786,1182.761C3637.963,1184.612,3348.391,1416.478,3165.806,1714.878C2973.236,2029.597,2867.562,2410.736,3035.35,2739.337C3216.978,3095.044,3588.44,3330.938,3987.786,3324.672" fill="rgba(0, 0, 0, 0.11)" class="triangle-float1"></path><path d="M1248.403,1652.908C1525.204,1664.535,1807.422,1571.317,1957.136,1338.208C2118.603,1086.799,2138.991,759.843,1987.305,502.415C1837.67,248.468,1543.075,142.354,1248.403,135.408C938.624,128.106,592.546,192.756,446.595,466.096C305.538,730.272,468.148,1034.556,635.799,1282.707C778.955,1494.602,992.907,1642.176,1248.403,1652.908" fill="rgba(0, 0, 0, 0.11)" class="triangle-float2"></path><path d="M2436.694,4145.613C2633.966,4147.442,2802.144,4015.518,2899.018,3843.661C2994.024,3675.119,3001.743,3473.717,2912.078,3302.274C2815.057,3116.765,2646.04,2960.509,2436.694,2959.677C2226.218,2958.84,2050.544,3111.07,1954.718,3298.469C1867.234,3469.553,1893.962,3668.208,1988.984,3835.223C2085.231,4004.391,2242.071,4143.809,2436.694,4145.613" fill="rgba(0, 0, 0, 0.11)" class="triangle-float2"></path><path d="M438.684,2682.841C722.014,2683.108,892.704,2404.059,1033.266,2158.055C1172.268,1914.78,1323.405,1627.454,1178.853,1387.435C1036.703,1151.404,714.201,1167.992,438.684,1170.792C170.355,1173.519,-137.65,1172.217,-275.876,1402.221C-416.567,1636.327,-287.046,1918.424,-153.961,2156.936C-16.029,2404.134,155.608,2682.574,438.684,2682.841" fill="rgba(0, 0, 0, 0.11)" class="triangle-float3"></path></g><defs><mask id="SvgjsMask1044"><rect width="3840" height="3840" fill="#ffffff"></rect></mask><radialGradient cx="0%" cy="0%" r="5430.58" gradientUnits="userSpaceOnUse" id="SvgjsRadialGradient1045"><stop stop-color="rgba(147, 218, 207, 1)" offset="0"></stop><stop stop-color="rgba(120, 166, 214, 1)" offset="0.4"></stop><stop stop-color="rgba(134, 94, 211, 1)" offset="0.83"></stop><stop stop-color="rgba(122, 39, 181, 1)" offset="1"></stop></radialGradient><style>
                @keyframes float1 {
                    0%{transform: translate(0, 0)}
                    50%{transform: translate(-10px, -45px)}
                    100%{transform: translate(0, 0)}
                }

                .triangle-float1 {
                    animation: float1 10s infinite;
                }

                @keyframes float2 {
                    0%{transform: translate(0, 0)}
                    50%{transform: translate(25px, -30px)}
                    100%{transform: translate(0, 0)}
                }

                .triangle-float2 {
                    animation: float2 8s infinite;
                }

                @keyframes float3 {
                    0%{transform: translate(0, 0)}
                    50%{transform: translate(-10px, 60px)}
                    100%{transform: translate(0, 0)}
                }

                .triangle-float3 {
                    animation: float3 9s infinite;
                }
            </style></defs></svg>